<svg xmlns="http://www.w3.org/2000/svg" viewBox="0 0 265.09 396.83"><defs><style>.cls-1,.cls-3,.cls-5{fill:#ccc;}.cls-1,.cls-3{stroke:#ccc;stroke-miterlimit:10;}.cls-1{stroke-width:8.18px;}.cls-2{fill:#fff;}.cls-3{stroke-width:8.08px;}.cls-4{fill:#e6e6e6;}.cls-6{fill:#f15a24;}.cls-7{fill:#f2f2f2;}</style></defs><title>Asset 5</title><g id="Layer_2" data-name="Layer 2"><g id="Layer_1-2" data-name="Layer 1"><rect class="cls-1" x="-74.28" y="82.46" width="345.74" height="189" rx="14.99" ry="14.99" transform="translate(275.55 78.37) rotate(90)"/><rect class="cls-2" x="-65.77" y="89.31" width="329.14" height="175.09" rx="9.26" ry="9.26" transform="translate(275.65 78.05) rotate(90)"/><rect class="cls-3" x="9.3" y="324.07" width="176.83" height="20.19"/><rect class="cls-3" x="9.99" y="9.39" width="176.83" height="20.19"/><rect class="cls-2" x="85.88" y="324.07" width="23.67" height="23.67" rx="8.35" ry="8.35"/><rect class="cls-2" x="74.04" y="18.44" width="48.73" height="2.78" rx="1.39" ry="1.39"/><rect class="cls-4" x="11.38" y="135.4" width="175.09" height="184.14"/><ellipse class="cls-5" cx="104.26" cy="135.4" rx="34.4" ry="34.81"/><rect class="cls-5" x="21.02" y="193.18" width="154.11" height="16.71"/><rect class="cls-5" x="21.02" y="218.94" width="154.11" height="16.71"/><rect class="cls-5" x="21.02" y="244.7" width="154.11" height="16.71"/><circle class="cls-6" cx="175.09" cy="306.83" r="90"/><path class="cls-7" d="M199.59,301.83a24.87,24.87,0,0,0-3.65-8.79l-8.78,8.79Z"/><path class="cls-7" d="M180.09,331.33a24.82,24.82,0,0,0,8.78-3.65l-8.78-8.78Z"/><path class="cls-7" d="M150.59,311.83a25,25,0,0,0,3.64,8.78l8.79-8.78Z"/><path class="cls-7" d="M154.23,293a25,25,0,0,0-3.64,8.79H163Z"/><path class="cls-7" d="M161.31,327.68a24.82,24.82,0,0,0,8.78,3.65V318.9Z"/><path class="cls-7" d="M187.16,311.83l8.78,8.78a24.82,24.82,0,0,0,3.65-8.78Z"/><path class="cls-7" d="M188.87,286a24.81,24.81,0,0,0-8.78-3.64v12.43Z"/><path class="cls-7" d="M170.09,282.33a24.81,24.81,0,0,0-8.78,3.64l8.78,8.79Z"/><polygon class="cls-7" points="175.09 299.75 180.09 294.75 180.09 282.33 180.09 277.83 170.09 277.83 170.09 282.33 170.09 294.75 175.09 299.75"/><polygon class="cls-7" points="175.09 313.9 170.09 318.9 170.09 331.32 170.09 335.83 180.09 335.83 180.09 331.32 180.09 318.9 175.09 313.9"/><polygon class="cls-7" points="175.09 299.75 177.16 301.83 187.16 301.83 195.94 293.04 199.13 289.86 192.06 282.78 188.87 285.97 180.09 294.75 175.09 299.75"/><polygon class="cls-7" points="175.09 313.9 173.02 311.83 163.02 311.83 154.23 320.61 151.05 323.8 158.12 330.87 161.31 327.68 170.09 318.9 175.09 313.9"/><polygon class="cls-7" points="173.02 311.83 175.09 313.9 180.09 318.9 188.87 327.68 192.06 330.87 199.13 323.8 195.94 320.61 187.16 311.83 173.02 311.83"/><polygon class="cls-7" points="177.16 301.83 175.09 299.75 170.09 294.75 161.31 285.97 158.12 282.78 151.05 289.86 154.23 293.04 163.02 301.83 177.16 301.83"/><polygon class="cls-7" points="173.02 311.83 187.16 311.83 199.59 311.83 204.09 311.83 204.09 301.83 199.59 301.83 187.16 301.83 177.16 301.83 163.02 301.83 150.59 301.83 146.09 301.83 146.09 311.83 150.59 311.83 163.02 311.83 173.02 311.83"/><circle class="cls-6" cx="175.09" cy="306.83" r="8"/></g></g></svg>