<svg xmlns="http://www.w3.org/2000/svg" viewBox="0 0 569.38 427.45"><defs><style>.cls-1{fill:#ccc;stroke:#ccc;stroke-miterlimit:10;stroke-width:13.29px;}.cls-2{fill:#666;}.cls-3{fill:#999;}.cls-4{fill:#e6e6e6;}.cls-5{fill:#f15a24;}.cls-6{fill:#fff;}</style></defs><title>Asset 6</title><g id="Layer_2" data-name="Layer 2"><g id="Layer_1-2" data-name="Layer 1"><path class="cls-1" d="M482.29,6.64H31A24.36,24.36,0,0,0,6.64,31v296.3A24.35,24.35,0,0,0,31,351.64h451.3a24.35,24.35,0,0,0,24.35-24.35V31A24.35,24.35,0,0,0,482.29,6.64Zm18.09,321.21A15.41,15.41,0,0,1,485,343.26H29.43A15.41,15.41,0,0,1,14,327.85V30.23A15.41,15.41,0,0,1,29.43,14.82H485a15.41,15.41,0,0,1,15.41,15.41Z"/><path class="cls-2" d="M27.15,20.45H50.38a0,0,0,0,1,0,0v317a0,0,0,0,1,0,0H27.15a8.27,8.27,0,0,1-8.27-8.27V28.72a8.27,8.27,0,0,1,8.27-8.27Z"/><path class="cls-2" d="M396.11,20.45h98.27a0,0,0,0,1,0,0v317a0,0,0,0,1,0,0H396.11a15.73,15.73,0,0,1-15.73-15.73V36.18a15.73,15.73,0,0,1,15.73-15.73Z" transform="translate(874.77 357.9) rotate(-180)"/><path class="cls-2" d="M50.38,20.45H485.72a8.66,8.66,0,0,1,8.66,8.66V41.45a0,0,0,0,1,0,0h-444a0,0,0,0,1,0,0v-21A0,0,0,0,1,50.38,20.45Z"/><rect class="cls-3" x="29.38" y="63.45" width="10" height="10"/><rect class="cls-3" x="29.38" y="85.15" width="10" height="10"/><rect class="cls-3" x="29.38" y="106.85" width="10" height="10"/><rect class="cls-3" x="29.38" y="128.55" width="10" height="10"/><rect class="cls-3" x="29.38" y="150.25" width="10" height="10"/><rect class="cls-3" x="29.38" y="171.95" width="10" height="10"/><rect class="cls-3" x="29.38" y="193.65" width="10" height="10"/><rect class="cls-3" x="29.38" y="215.35" width="10" height="10"/><rect class="cls-3" x="29.38" y="237.05" width="10" height="10"/><rect class="cls-3" x="29.38" y="258.75" width="10" height="10"/><rect class="cls-3" x="29.38" y="280.45" width="10" height="10"/><rect class="cls-3" x="60.38" y="29.45" width="31" height="5" rx="2.5" ry="2.5"/><rect class="cls-3" x="102.38" y="29.45" width="31" height="5" rx="2.5" ry="2.5"/><rect class="cls-3" x="151.38" y="29.45" width="31" height="5" rx="2.5" ry="2.5"/><rect class="cls-3" x="199.38" y="29.45" width="31" height="5" rx="2.5" ry="2.5"/><rect class="cls-3" x="241.38" y="29.45" width="31" height="5" rx="2.5" ry="2.5"/><rect class="cls-3" x="24.38" y="25.45" width="19" height="13" rx="2.25" ry="2.25"/><rect class="cls-3" x="394.38" y="59.45" width="85" height="4" rx="2" ry="2"/><rect class="cls-3" x="394.38" y="69.45" width="85" height="8" rx="2.83" ry="2.83"/><rect class="cls-3" x="394.38" y="81.45" width="85" height="8" rx="2.83" ry="2.83"/><rect class="cls-3" x="394.38" y="93.45" width="85" height="8" rx="2.83" ry="2.83"/><rect class="cls-3" x="394.38" y="106.45" width="85" height="8" rx="2.83" ry="2.83"/><rect class="cls-3" x="394.38" y="121.45" width="85" height="65" rx="8.06" ry="8.06"/><rect class="cls-3" x="394.38" y="204.45" width="85" height="65" rx="8.06" ry="8.06"/><rect class="cls-4" x="119.38" y="88.45" width="205" height="166"/><circle class="cls-5" cx="479.38" cy="337.45" r="90"/><path class="cls-6" d="M472,339.93c-1.33,1.47-1.66,2.52-3.41,5.28a14.94,14.94,0,0,1,4.8,5.74c3-1.73,4.4-2,6-3.33,10.39-8.74,35.82-40.09,34.94-41S481.18,329.9,472,339.93Zm-6.4,7.71c-4.51-.79-9,2.06-11.94,9.19s-8.29,10-9.32,9.8c5.55,2,22.46,7.14,26.66-12.4A13,13,0,0,0,465.64,347.64Z"/></g></g></svg>