<svg xmlns="http://www.w3.org/2000/svg" viewBox="0 0 590.47 410.38"><defs><style>.cls-1,.cls-2,.cls-3{fill:#ccc;}.cls-2{stroke:#ccc;stroke-width:13.25px;}.cls-2,.cls-7,.cls-8{stroke-miterlimit:10;}.cls-3{font-size:104.02px;font-family:Roboto-Medium, Roboto;}.cls-4{letter-spacing:-0.12em;}.cls-5{fill:#fff;}.cls-6,.cls-7,.cls-8{fill:#999;}.cls-7,.cls-8{stroke:#000;}.cls-7{stroke-width:0.84px;}.cls-9{fill:#f2f2f2;}.cls-10{fill:#b3b3b3;}.cls-11{fill:#f15a24;}</style></defs><title>Asset 4</title><g id="Layer_2" data-name="Layer 2"><g id="Layer_1-2" data-name="Layer 1"><path class="cls-1" d="M253.84,349.89v60.49H102a10.45,10.45,0,0,1,5.5-3.5c11.6-2.35,40.54-5.67,69-10,33.52-5.1,66-7.86,66-8,0-8,1.17-26.49-4-39"/><path class="cls-1" d="M253,349.89v60.49H404.84a10.45,10.45,0,0,0-5.5-3.5c-11.6-2.35-40.53-5.67-69-10-33.51-5.1-66-7.86-66-8,0-8-1.17-26.49,4-39"/><rect class="cls-2" x="6.63" y="6.63" width="500" height="343.27" rx="24.29" ry="24.29"/><text class="cls-3" transform="translate(85.38 227.67)">https:<tspan class="cls-4" x="266.75" y="0">/</tspan><tspan x="295.3" y="0">/</tspan></text><rect class="cls-5" x="18.47" y="18.88" width="476" height="318" rx="15" ry="15"/><rect class="cls-1" x="42.47" y="42.88" width="429" height="268"/><rect class="cls-6" x="42.47" y="42.88" width="429" height="17"/><polygon class="cls-7" points="434.47 50.88 427.47 50.88 427.47 50.88 434.47 50.88 434.47 50.88"/><rect class="cls-8" x="443.97" y="47.38" width="4" height="4"/><rect class="cls-8" x="445.97" y="49.38" width="4" height="4"/><line class="cls-7" x1="463.97" y1="48.38" x2="458.97" y2="53.38"/><line class="cls-7" x1="458.97" y1="48.38" x2="463.97" y2="53.38"/><rect class="cls-9" x="48.47" y="65.88" width="114" height="238"/><rect class="cls-10" x="52.47" y="72.88" width="103" height="40"/><rect class="cls-10" x="52.47" y="124.88" width="103" height="40"/><rect class="cls-10" x="52.47" y="176.88" width="103" height="15"/><rect class="cls-10" x="52.47" y="202.88" width="103" height="15"/><path class="cls-6" d="M340.14,109.67a18.32,18.32,0,0,0-2.71-6.51l-6.51,6.51Z"/><path class="cls-6" d="M325.68,131.54a18.31,18.31,0,0,0,6.51-2.7l-6.51-6.51Z"/><path class="cls-6" d="M303.81,117.08a18.43,18.43,0,0,0,2.7,6.52l6.51-6.52Z"/><path class="cls-6" d="M306.51,103.16a18.31,18.31,0,0,0-2.7,6.51H313Z"/><path class="cls-6" d="M311.75,128.84a18.43,18.43,0,0,0,6.52,2.7v-9.21Z"/><path class="cls-6" d="M330.92,117.08l6.51,6.52a18.45,18.45,0,0,0,2.71-6.52Z"/><path class="cls-6" d="M332.19,97.92a18.32,18.32,0,0,0-6.51-2.71v9.22Z"/><path class="cls-6" d="M318.27,95.21a18.45,18.45,0,0,0-6.52,2.71l6.52,6.51Z"/><polygon class="cls-6" points="321.97 108.14 325.68 104.43 325.68 95.21 325.68 91.88 318.27 91.88 318.27 95.21 318.27 104.43 321.97 108.14"/><polygon class="cls-6" points="321.97 118.62 318.27 122.33 318.27 131.54 318.27 134.88 325.68 134.88 325.68 131.54 325.68 122.33 321.97 118.62"/><polygon class="cls-6" points="321.97 108.14 323.51 109.67 330.92 109.67 337.43 103.16 339.8 100.8 334.56 95.55 332.19 97.92 325.68 104.43 321.97 108.14"/><polygon class="cls-6" points="321.97 118.62 320.44 117.08 313.02 117.08 306.51 123.6 304.15 125.96 309.39 131.2 311.75 128.84 318.27 122.33 321.97 118.62"/><polygon class="cls-6" points="320.44 117.08 321.97 118.62 325.68 122.33 332.19 128.84 334.56 131.2 339.8 125.96 337.43 123.6 330.92 117.08 320.44 117.08"/><polygon class="cls-6" points="323.51 109.67 321.97 108.14 318.27 104.43 311.75 97.92 309.39 95.55 304.15 100.8 306.51 103.16 313.02 109.67 323.51 109.67"/><polygon class="cls-6" points="320.44 117.08 330.92 117.08 340.14 117.08 343.47 117.08 343.47 109.67 340.14 109.67 330.92 109.67 323.51 109.67 313.02 109.67 303.81 109.67 300.47 109.67 300.47 117.08 303.81 117.08 313.02 117.08 320.44 117.08"/><circle class="cls-1" cx="321.97" cy="113.38" r="5.93"/><rect class="cls-6" x="182.97" y="164.88" width="267" height="19" rx="9.5" ry="9.5"/><rect class="cls-6" x="182.97" y="200.88" width="267" height="19" rx="9.5" ry="9.5"/><rect class="cls-6" x="184.47" y="233.88" width="264" height="59" rx="10.5" ry="10.5"/><circle class="cls-11" cx="500.47" cy="310.88" r="90"/><path class="cls-9" d="M525,305.88a24.93,24.93,0,0,0-3.64-8.79l-8.79,8.79Z"/><path class="cls-9" d="M505.47,335.38a25,25,0,0,0,8.79-3.65L505.47,323Z"/><path class="cls-9" d="M476,315.88a24.82,24.82,0,0,0,3.65,8.78l8.78-8.78Z"/><path class="cls-9" d="M479.62,297.09a25,25,0,0,0-3.65,8.79H488.4Z"/><path class="cls-9" d="M486.69,331.73a24.82,24.82,0,0,0,8.78,3.65V323Z"/><path class="cls-9" d="M512.54,315.88l8.79,8.78a24.81,24.81,0,0,0,3.64-8.78Z"/><path class="cls-9" d="M514.26,290a24.93,24.93,0,0,0-8.79-3.64v12.43Z"/><path class="cls-9" d="M495.47,286.38a24.81,24.81,0,0,0-8.78,3.64l8.78,8.79Z"/><polygon class="cls-9" points="500.47 303.81 505.47 298.81 505.47 286.38 505.47 281.88 495.47 281.88 495.47 286.38 495.47 298.81 500.47 303.81"/><polygon class="cls-9" points="500.47 317.95 495.47 322.95 495.47 335.38 495.47 339.88 505.47 339.88 505.47 335.38 505.47 322.95 500.47 317.95"/><polygon class="cls-9" points="500.47 303.81 502.54 305.88 512.54 305.88 521.33 297.09 524.51 293.91 517.44 286.84 514.26 290.02 505.47 298.81 500.47 303.81"/><polygon class="cls-9" points="500.47 317.95 498.4 315.88 488.4 315.88 479.62 324.66 476.43 327.85 483.5 334.92 486.69 331.73 495.47 322.95 500.47 317.95"/><polygon class="cls-9" points="498.4 315.88 500.47 317.95 505.47 322.95 514.26 331.73 517.44 334.92 524.51 327.85 521.33 324.66 512.54 315.88 498.4 315.88"/><polygon class="cls-9" points="502.54 305.88 500.47 303.81 495.47 298.81 486.69 290.02 483.5 286.84 476.43 293.91 479.62 297.09 488.4 305.88 502.54 305.88"/><polygon class="cls-9" points="498.4 315.88 512.54 315.88 524.97 315.88 529.47 315.88 529.47 305.88 524.97 305.88 512.54 305.88 502.54 305.88 488.4 305.88 475.97 305.88 471.47 305.88 471.47 315.88 475.97 315.88 488.4 315.88 498.4 315.88"/><circle class="cls-11" cx="500.47" cy="310.88" r="8"/><circle class="cls-6" cx="253.47" cy="345.88" r="5"/></g></g></svg>